<?xml version="1.0"?>
<svg xmlns="http://www.w3.org/2000/svg" xmlns:xlink="http://www.w3.org/1999/xlink" xmlns:svgjs="http://svgjs.com/svgjs" version="1.1" width="512" height="512" x="0" y="0" viewBox="0 0 512 512" style="enable-background:new 0 0 512 512" xml:space="preserve" class=""><g><g xmlns="http://www.w3.org/2000/svg"><g><path d="m.228 366.926c-.69 3.917.203 7.949 2.485 11.208 2.281 3.259 5.765 5.478 9.683 6.168l66.577 11.739-41.939-237.852z" fill="#f9a825" data-original="#000000" style="" class=""/><g><path d="m80.199.242c-3.927-.713-7.979.167-11.256 2.447-3.276 2.281-5.509 5.774-6.202 9.706l-15.908 90.22 302.673-53.37z" fill="#f9a825" data-original="#000000" style="" class=""/></g></g><path d="m511.773 431.882-62.514-354.531c-1.438-8.158-9.215-13.602-17.377-12.167l-354.53 62.513c-8.158 1.438-13.606 9.218-12.168 17.376l62.513 354.531c.691 3.918 2.91 7.401 6.169 9.683 2.539 1.778 5.546 2.713 8.604 2.713.867 0 1.739-.075 2.604-.228l354.531-62.513c3.918-.69 7.401-2.91 9.683-6.168 2.282-3.259 3.175-7.291 2.485-11.209zm-366.663-179.05c-1.438-8.158 4.01-15.938 12.168-17.376l236.355-41.676c8.165-1.438 15.939 4.009 17.377 12.167s-4.01 15.938-12.168 17.376l-236.355 41.677c-.881.155-1.758.23-2.622.23-7.143 0-13.472-5.12-14.755-12.398zm195.784 102.561-157.569 27.784c-.881.155-1.758.23-2.622.23-7.143 0-13.472-5.12-14.755-12.398-1.438-8.158 4.01-15.938 12.168-17.376l157.569-27.784c8.164-1.439 15.938 4.009 17.377 12.167 1.438 8.158-4.01 15.938-12.168 17.377zm68.366-72.981-236.355 41.676c-.881.155-1.758.23-2.622.23-7.143 0-13.472-5.12-14.755-12.398-1.438-8.158 4.01-15.938 12.168-17.376l236.355-41.676c8.164-1.438 15.938 4.009 17.377 12.167 1.438 8.159-4.01 15.939-12.168 17.377z" fill="#f9a825" data-original="#000000" style="" class=""/></g></g></svg>
